<svg id="Layer_1" data-name="Layer 1" xmlns="http://www.w3.org/2000/svg" viewBox="0 0 2000 2000"><defs><style>.cls-1{fill:#231f20;}.cls-2{fill:#fff;stroke:#fff;stroke-miterlimit:10;}</style></defs><title>Artboard 1</title><g id="Layer_2" data-name="Layer 2"><rect class="cls-1" y="-8.4" width="2000" height="2008.4"/></g><g id="Layer_1-2" data-name="Layer 1"><path class="cls-1" d="M1000,0C447.7,0,0,447.7,0,1000S447.7,2000,1000,2000s1000-447.7,1000-1000S1552.3,0,1000,0Z"/><path class="cls-2" d="M1367.1,920.2s100-61.9,100-171S1361.7,500.9,1195,500.9H727.8V805.8H462.3v130H727.8v172.3H462.3v130H727.8v256.2h432.7c204.4,0,379.7-111.6,379.7-314.2A270.77,270.77,0,0,0,1367.1,920.2ZM905.7,637.4h215c86.1,0,175,41.6,175,136,0,94.7-93.7,142.3-180.3,141.8H905.7Zm244.4,693H905.7V1029h242.6c161.2,0,228.2,66.7,228.2,164.6S1259.3,1330.4,1150.1,1330.4Z"/></g></svg>