<?xml version="1.0" encoding="utf-8"?>
<!-- Generator: Adobe Illustrator 22.0.1, SVG Export Plug-In . SVG Version: 6.00 Build 0)  -->
<svg version="1.1" xmlns="http://www.w3.org/2000/svg" xmlns:xlink="http://www.w3.org/1999/xlink" x="0px" y="0px"
	 viewBox="0 0 2000 2000" style="enable-background:new 0 0 2000 2000;" xml:space="preserve">
<style type="text/css">
	.st0{fill:#231F20;}
	.st1{fill:#FFFFFF;}
</style>
<g id="Layer_2">
	<rect y="-8.4" class="st0" width="2000" height="2008.4"/>
</g>
<g id="Layer_1">
	<g>
		<path class="st0" d="M1000,0C447.7,0,0,447.7,0,1000s447.7,1000,1000,1000s1000-447.7,1000-1000S1552.3,0,1000,0z"/>
		<path class="st1" d="M1367.1,920.2c0,0,100-61.9,100-171S1361.7,500.9,1195,500.9H727.8v304.9H462.3v130h265.5v172.3H462.3v130
			h265.5v256.2h432.7c204.4,0,379.7-111.6,379.7-314.2C1543.3,1065.6,1474,961.5,1367.1,920.2z M905.7,637.4h215
			c86.1,0,175,41.6,175,136c0,94.7-93.7,142.3-180.3,141.8H905.7V637.4z M1150.1,1330.4H905.7V1029h242.6
			c161.2,0,228.2,66.7,228.2,164.6S1259.3,1330.4,1150.1,1330.4z"/>
	</g>
</g>
</svg>
